# xmcd CD database file generated by OrangeCD 5.1
#
# Track frame offsets:
#	150
#	13792
#	30379
#	52391
#	71458
#	81139
#	92463
#	107482
#	122725
#	146545
#	164585
#	189328
#	209917
#	223251
#	247582
#	264704
#	280936
#	305130
#	321058
#
# Disc length: 4524 seconds
#
# Revision: 2
# Processed by: cddbd v1.4PL0 Copyright (c) Steve Scherf et al.
# Submitted via: OrangeCD 5.1
#
DISCID=1a11aa13
DTITLE=Hopkins, Lightnin' - Complete Prestige/Bluesville Recordings - Disc 3
DYEAR=1900
DGENRE=Blues
TTITLE0=How Many More Years I Got To Let You Dog Me Around
TTITLE1=Black Cadillac
TTITLE2=Walkin' This Road By Myself
TTITLE3=The Devil Jumped The Black Man
TTITLE4=My Baby Don't Stand No Cheating
TTITLE5=You Is One Black Rat
TTITLE6=The Fox Chase
TTITLE7=Mojo Hand
TTITLE8=Mama Blues
TTITLE9=My Black Name
TTITLE10=Ida Mae
TTITLE11=Prison Farm Blues
TTITLE12=Worried Life Blues
TTITLE13=Happy Blues For John Glenn
TTITLE14=Sinner's Prayer
TTITLE15=Angel Child
TTITLE16=I Got A Leak In This Old Building
TTITLE17=Pneumonia Blues
TTITLE18=Have You Ever Been Mistreated
EXTD=
EXTT0=
EXTT1=
EXTT2=
EXTT3=
EXTT4=
EXTT5=
EXTT6=
EXTT7=
EXTT8=
EXTT9=
EXTT10=
EXTT11=
EXTT12=
EXTT13=
EXTT14=
EXTT15=
EXTT16=
EXTT17=
EXTT18=
PLAYORDER=
